# xmcd
#
# Track frame offsets:
#	150
#	23126
#	43735
#	67073
#	88873
#	109233
#
# Disc length: 1691 seconds
#
# Revision: 19
# Processed by: cddbd v1.5.2PL0 Copyright (c) Steve Scherf et al.
# Submitted via: Jack! The Knife 20 Magnifico
#
DISCID=50069906
DTITLE=Loudness - Jealousy
DYEAR=1988
DGENRE=Heavy Metal
TTITLE0=Jealousy
TTITLE1=Long Distance Love
TTITLE2=Good Things Going
TTITLE3=Die Of Hunger
TTITLE4=Heavier Than Hell
TTITLE5=Dreamer And Screamer
EXTD=Loudness and Toshi Makashita
EXTT0=Akira Takasaki
EXTT1=Akira Takasaki
EXTT2=Akira Takasaki
EXTT3=Akira Takasaki
EXTT4=Akira Takasaki
EXTT5=Akira Takasaki
PLAYORDER=
